<svg width="109" height="40" viewBox="0 0 109 40" fill="none" xmlns="http://www.w3.org/2000/svg">
  <rect width="109" height="40" rx="6" fill="#FBCF08"/>
  <path fill-rule="evenodd" clip-rule="evenodd" d="M26 12.5L35 20L26 27.5L26 12.5Z" fill="black"/>
  <path d="M49.0703 21.4453H46.1719V19.6172H49.0703C49.5182 19.6172 49.8828 19.5443 50.1641 19.3984C50.4453 19.2474 50.651 19.0391 50.7812 18.7734C50.9115 18.5078 50.9766 18.2083 50.9766 17.875C50.9766 17.5365 50.9115 17.2214 50.7812 16.9297C50.651 16.638 50.4453 16.4036 50.1641 16.2266C49.8828 16.0495 49.5182 15.9609 49.0703 15.9609H46.9844V25.5H44.6406V14.125H49.0703C49.9609 14.125 50.724 14.2865 51.3594 14.6094C52 14.9271 52.4896 15.3672 52.8281 15.9297C53.1667 16.4922 53.3359 17.1354 53.3359 17.8594C53.3359 18.5938 53.1667 19.2292 52.8281 19.7656C52.4896 20.3021 52 20.7161 51.3594 21.0078C50.724 21.2995 49.9609 21.4453 49.0703 21.4453ZM62.2656 23.6719V25.5H56.5391V23.6719H62.2656ZM57.2969 14.125V25.5H54.9531V14.125H57.2969ZM68.3906 16.0703L65.2969 25.5H62.8047L67.0312 14.125H68.6172L68.3906 16.0703ZM70.9609 25.5L67.8594 16.0703L67.6094 14.125H69.2109L73.4609 25.5H70.9609ZM70.8203 21.2656V23.1016H64.8125V21.2656H70.8203ZM75.0469 14.125L77.4219 19.3125L79.7969 14.125H82.3516L78.6094 21.3594V25.5H76.2344V21.3594L72.4844 14.125H75.0469Z" fill="black"/>
</svg>
